<mxfile host="Electron" modified="2024-01-24T04:16:05.882Z" agent="Mozilla/5.0 (Windows NT 10.0; Win64; x64) AppleWebKit/537.36 (KHTML, like Gecko) draw.io/22.1.2 Chrome/114.0.5735.289 Electron/25.9.4 Safari/537.36" etag="NmXeY_jG3kG1WuIH0HK-" version="22.1.2" type="device">
  <diagram name="Page-1" id="eL4JbeeeacNXCCy-9pOg">
    <mxGraphModel dx="1845" dy="512" grid="1" gridSize="10" guides="1" tooltips="1" connect="1" arrows="1" fold="1" page="1" pageScale="1" pageWidth="827" pageHeight="1169" math="0" shadow="0">
      <root>
        <mxCell id="0" />
        <mxCell id="1" parent="0" />
        <mxCell id="zXZ9EwWsIQRavocEQ5ef-60" value="&lt;p style=&quot;margin:0px;margin-top:4px;text-align:center;&quot;&gt;&lt;b&gt;Hotel&lt;/b&gt;&lt;/p&gt;&lt;hr size=&quot;1&quot;&gt;&lt;p style=&quot;margin:0px;margin-left:4px;&quot;&gt;Adresse: String&lt;/p&gt;&lt;p style=&quot;margin:0px;margin-left:4px;&quot;&gt;Nb pièces : int&lt;/p&gt;&lt;p style=&quot;margin:0px;margin-left:4px;&quot;&gt;Catégories : string&lt;/p&gt;&lt;hr size=&quot;1&quot;&gt;&lt;p style=&quot;margin:0px;margin-left:4px;&quot;&gt;CalculChiffreAffaires(Date,Date)&amp;nbsp;&lt;/p&gt;" style="verticalAlign=top;align=left;overflow=fill;fontSize=12;fontFamily=Helvetica;html=1;whiteSpace=wrap;" vertex="1" parent="1">
          <mxGeometry x="300" y="20" width="190" height="110" as="geometry" />
        </mxCell>
        <mxCell id="zXZ9EwWsIQRavocEQ5ef-72" value="" style="edgeStyle=none;orthogonalLoop=1;jettySize=auto;html=1;rounded=0;" edge="1" parent="1">
          <mxGeometry width="100" relative="1" as="geometry">
            <mxPoint x="-50" y="450" as="sourcePoint" />
            <mxPoint x="50" y="450" as="targetPoint" />
            <Array as="points" />
          </mxGeometry>
        </mxCell>
        <mxCell id="zXZ9EwWsIQRavocEQ5ef-73" value="" style="endArrow=open;html=1;endSize=12;startArrow=diamondThin;startSize=14;startFill=1;edgeStyle=orthogonalEdgeStyle;align=left;verticalAlign=bottom;rounded=0;" edge="1" parent="1">
          <mxGeometry x="-1" y="3" relative="1" as="geometry">
            <mxPoint x="490" y="74.5" as="sourcePoint" />
            <mxPoint x="650" y="74.5" as="targetPoint" />
          </mxGeometry>
        </mxCell>
        <mxCell id="zXZ9EwWsIQRavocEQ5ef-74" value="&lt;p style=&quot;margin:0px;margin-top:4px;text-align:center;&quot;&gt;&lt;b&gt;Chambre&lt;/b&gt;&lt;/p&gt;&lt;hr size=&quot;1&quot;&gt;&lt;p style=&quot;margin:0px;margin-left:4px;&quot;&gt;Nb lits: Int&lt;/p&gt;&lt;p style=&quot;margin:0px;margin-left:4px;&quot;&gt;Prix: Flot&lt;/p&gt;&lt;p style=&quot;margin:0px;margin-left:4px;&quot;&gt;Numéro : Int&lt;/p&gt;&lt;hr size=&quot;1&quot;&gt;&lt;p style=&quot;margin:0px;margin-left:4px;&quot;&gt;Loyer(Date)&lt;/p&gt;" style="verticalAlign=top;align=left;overflow=fill;fontSize=12;fontFamily=Helvetica;html=1;whiteSpace=wrap;" vertex="1" parent="1">
          <mxGeometry x="650" y="10" width="160" height="110" as="geometry" />
        </mxCell>
        <mxCell id="zXZ9EwWsIQRavocEQ5ef-75" value="" style="endArrow=none;html=1;edgeStyle=orthogonalEdgeStyle;rounded=0;exitX=0.5;exitY=1;exitDx=0;exitDy=0;" edge="1" parent="1" source="zXZ9EwWsIQRavocEQ5ef-74">
          <mxGeometry relative="1" as="geometry">
            <mxPoint x="667" y="200" as="sourcePoint" />
            <mxPoint x="730" y="200" as="targetPoint" />
            <Array as="points">
              <mxPoint x="730" y="160" />
              <mxPoint x="730" y="160" />
            </Array>
          </mxGeometry>
        </mxCell>
        <mxCell id="zXZ9EwWsIQRavocEQ5ef-88" value="&lt;p style=&quot;margin:0px;margin-top:4px;text-align:center;&quot;&gt;&lt;b&gt;Salle d&#39;eau&lt;/b&gt;&lt;/p&gt;&lt;hr size=&quot;1&quot;&gt;&lt;div style=&quot;height:2px;&quot;&gt;&lt;/div&gt;" style="verticalAlign=top;align=left;overflow=fill;fontSize=12;fontFamily=Helvetica;html=1;whiteSpace=wrap;" vertex="1" parent="1">
          <mxGeometry x="660" y="200" width="140" height="60" as="geometry" />
        </mxCell>
        <mxCell id="zXZ9EwWsIQRavocEQ5ef-89" value="" style="endArrow=block;endSize=16;endFill=0;html=1;rounded=0;entryX=0.364;entryY=1.017;entryDx=0;entryDy=0;entryPerimeter=0;" edge="1" parent="1">
          <mxGeometry width="160" relative="1" as="geometry">
            <mxPoint x="690.04" y="338.98" as="sourcePoint" />
            <mxPoint x="690" y="260" as="targetPoint" />
          </mxGeometry>
        </mxCell>
        <mxCell id="zXZ9EwWsIQRavocEQ5ef-90" value="" style="endArrow=block;endSize=16;endFill=0;html=1;rounded=0;entryX=0.857;entryY=1.05;entryDx=0;entryDy=0;entryPerimeter=0;" edge="1" parent="1">
          <mxGeometry width="160" relative="1" as="geometry">
            <mxPoint x="770.02" y="337" as="sourcePoint" />
            <mxPoint x="770" y="260" as="targetPoint" />
            <Array as="points">
              <mxPoint x="770" y="300" />
              <mxPoint x="770" y="290" />
            </Array>
          </mxGeometry>
        </mxCell>
        <mxCell id="zXZ9EwWsIQRavocEQ5ef-93" value="&lt;p style=&quot;margin:0px;margin-top:4px;text-align:center;&quot;&gt;&lt;b&gt;Douche&lt;/b&gt;&lt;/p&gt;&lt;hr size=&quot;1&quot;&gt;&lt;div style=&quot;height:2px;&quot;&gt;&lt;/div&gt;" style="verticalAlign=top;align=left;overflow=fill;fontSize=12;fontFamily=Helvetica;html=1;whiteSpace=wrap;" vertex="1" parent="1">
          <mxGeometry x="630" y="340" width="100" height="50" as="geometry" />
        </mxCell>
        <mxCell id="zXZ9EwWsIQRavocEQ5ef-94" value="&lt;p style=&quot;margin:0px;margin-top:4px;text-align:center;&quot;&gt;&lt;b&gt;Baignoire&lt;/b&gt;&lt;/p&gt;&lt;hr size=&quot;1&quot;&gt;&lt;div style=&quot;height:2px;&quot;&gt;&lt;/div&gt;" style="verticalAlign=top;align=left;overflow=fill;fontSize=12;fontFamily=Helvetica;html=1;whiteSpace=wrap;" vertex="1" parent="1">
          <mxGeometry x="740" y="340" width="100" height="50" as="geometry" />
        </mxCell>
        <mxCell id="zXZ9EwWsIQRavocEQ5ef-96" value="&lt;p style=&quot;margin:0px;margin-top:4px;text-align:center;&quot;&gt;&lt;b&gt;Adulte&lt;/b&gt;&lt;/p&gt;&lt;hr size=&quot;1&quot;&gt;&lt;div style=&quot;height:2px;&quot;&gt;&lt;/div&gt;" style="verticalAlign=top;align=left;overflow=fill;fontSize=12;fontFamily=Helvetica;html=1;whiteSpace=wrap;" vertex="1" parent="1">
          <mxGeometry x="323" y="210" width="140" height="60" as="geometry" />
        </mxCell>
        <mxCell id="zXZ9EwWsIQRavocEQ5ef-97" value="" style="endArrow=none;html=1;edgeStyle=orthogonalEdgeStyle;rounded=0;exitX=0.114;exitY=-0.05;exitDx=0;exitDy=0;exitPerimeter=0;entryX=0.189;entryY=1;entryDx=0;entryDy=0;entryPerimeter=0;" edge="1" parent="1" source="zXZ9EwWsIQRavocEQ5ef-96" target="zXZ9EwWsIQRavocEQ5ef-60">
          <mxGeometry relative="1" as="geometry">
            <mxPoint x="330" y="150" as="sourcePoint" />
            <mxPoint x="336" y="140" as="targetPoint" />
          </mxGeometry>
        </mxCell>
        <mxCell id="zXZ9EwWsIQRavocEQ5ef-106" value="Dirige" style="edgeLabel;html=1;align=center;verticalAlign=middle;resizable=0;points=[];" vertex="1" connectable="0" parent="zXZ9EwWsIQRavocEQ5ef-97">
          <mxGeometry x="0.0272" y="-1" relative="1" as="geometry">
            <mxPoint as="offset" />
          </mxGeometry>
        </mxCell>
        <mxCell id="zXZ9EwWsIQRavocEQ5ef-103" value="" style="endArrow=none;html=1;edgeStyle=orthogonalEdgeStyle;rounded=0;entryX=0.821;entryY=-0.05;entryDx=0;entryDy=0;entryPerimeter=0;exitX=0.705;exitY=1;exitDx=0;exitDy=0;exitPerimeter=0;" edge="1" parent="1" source="zXZ9EwWsIQRavocEQ5ef-60" target="zXZ9EwWsIQRavocEQ5ef-96">
          <mxGeometry relative="1" as="geometry">
            <mxPoint x="430" y="128" as="sourcePoint" />
            <mxPoint x="490" y="150" as="targetPoint" />
          </mxGeometry>
        </mxCell>
        <mxCell id="zXZ9EwWsIQRavocEQ5ef-107" value="Emploie" style="edgeLabel;html=1;align=center;verticalAlign=middle;resizable=0;points=[];" vertex="1" connectable="0" parent="zXZ9EwWsIQRavocEQ5ef-103">
          <mxGeometry x="0.1014" y="1" relative="1" as="geometry">
            <mxPoint as="offset" />
          </mxGeometry>
        </mxCell>
        <mxCell id="zXZ9EwWsIQRavocEQ5ef-109" value="" style="html=1;whiteSpace=wrap;aspect=fixed;shape=isoRectangle;" vertex="1" parent="1">
          <mxGeometry x="520" y="221" width="30" height="18" as="geometry" />
        </mxCell>
        <mxCell id="zXZ9EwWsIQRavocEQ5ef-110" value="" style="endArrow=none;html=1;edgeStyle=orthogonalEdgeStyle;rounded=0;entryX=0.113;entryY=1.036;entryDx=0;entryDy=0;entryPerimeter=0;" edge="1" parent="1" target="zXZ9EwWsIQRavocEQ5ef-74">
          <mxGeometry relative="1" as="geometry">
            <mxPoint x="549" y="230" as="sourcePoint" />
            <mxPoint x="490" y="150" as="targetPoint" />
            <Array as="points">
              <mxPoint x="549" y="151" />
              <mxPoint x="668" y="151" />
            </Array>
          </mxGeometry>
        </mxCell>
        <mxCell id="zXZ9EwWsIQRavocEQ5ef-120" value="" style="endArrow=none;dashed=1;html=1;rounded=0;entryX=0.533;entryY=1;entryDx=0;entryDy=0;entryPerimeter=0;" edge="1" parent="1" target="zXZ9EwWsIQRavocEQ5ef-109">
          <mxGeometry width="50" height="50" relative="1" as="geometry">
            <mxPoint x="536" y="310" as="sourcePoint" />
            <mxPoint x="440" y="110" as="targetPoint" />
          </mxGeometry>
        </mxCell>
        <mxCell id="zXZ9EwWsIQRavocEQ5ef-121" value="&lt;p style=&quot;margin:0px;margin-top:4px;text-align:center;&quot;&gt;&lt;b&gt;Location&amp;nbsp;&lt;/b&gt;&lt;/p&gt;&lt;hr size=&quot;1&quot;&gt;&lt;div style=&quot;height:2px;&quot;&gt;&amp;nbsp;Date&lt;/div&gt;" style="verticalAlign=top;align=left;overflow=fill;fontSize=12;fontFamily=Helvetica;html=1;whiteSpace=wrap;" vertex="1" parent="1">
          <mxGeometry x="465" y="310" width="140" height="60" as="geometry" />
        </mxCell>
        <mxCell id="zXZ9EwWsIQRavocEQ5ef-122" value="" style="endArrow=block;endSize=16;endFill=0;html=1;rounded=0;exitX=0;exitY=0.617;exitDx=0;exitDy=0;entryX=1.007;entryY=0.614;entryDx=0;entryDy=0;exitPerimeter=0;entryPerimeter=0;" edge="1" parent="1" source="zXZ9EwWsIQRavocEQ5ef-96" target="zXZ9EwWsIQRavocEQ5ef-123">
          <mxGeometry x="-0.1111" width="160" relative="1" as="geometry">
            <mxPoint x="320" y="239" as="sourcePoint" />
            <mxPoint x="260" y="299" as="targetPoint" />
            <mxPoint as="offset" />
          </mxGeometry>
        </mxCell>
        <mxCell id="zXZ9EwWsIQRavocEQ5ef-123" value="&lt;p style=&quot;margin:0px;margin-top:4px;text-align:center;&quot;&gt;&lt;b&gt;Personne&lt;/b&gt;&lt;/p&gt;&lt;hr size=&quot;1&quot;&gt;&lt;div style=&quot;height:2px;&quot;&gt;Name : String&amp;nbsp;&lt;/div&gt;&lt;div style=&quot;height:2px;&quot;&gt;&lt;br&gt;&lt;/div&gt;&lt;div style=&quot;height:2px;&quot;&gt;&lt;br&gt;&lt;/div&gt;&lt;div style=&quot;height:2px;&quot;&gt;&lt;br&gt;&lt;/div&gt;&lt;div style=&quot;height:2px;&quot;&gt;&lt;br&gt;&lt;/div&gt;&lt;div style=&quot;height:2px;&quot;&gt;&lt;br&gt;&lt;/div&gt;&lt;div style=&quot;height:2px;&quot;&gt;&lt;br&gt;&lt;/div&gt;&lt;div style=&quot;height:2px;&quot;&gt;&lt;br&gt;&lt;/div&gt;&lt;div style=&quot;height:2px;&quot;&gt;Prénom : String&amp;nbsp;&lt;/div&gt;&lt;div style=&quot;height:2px;&quot;&gt;&lt;br&gt;&lt;/div&gt;&lt;div style=&quot;height:2px;&quot;&gt;&lt;br&gt;&lt;/div&gt;&lt;div style=&quot;height:2px;&quot;&gt;&lt;br&gt;&lt;/div&gt;&lt;div style=&quot;height:2px;&quot;&gt;&lt;br&gt;&lt;/div&gt;&lt;div style=&quot;height:2px;&quot;&gt;&lt;br&gt;&lt;/div&gt;&lt;div style=&quot;height:2px;&quot;&gt;&lt;br&gt;&lt;/div&gt;&lt;div style=&quot;height:2px;&quot;&gt;&lt;br&gt;&lt;/div&gt;" style="verticalAlign=top;align=left;overflow=fill;fontSize=12;fontFamily=Helvetica;html=1;whiteSpace=wrap;" vertex="1" parent="1">
          <mxGeometry x="90" y="205" width="140" height="70" as="geometry" />
        </mxCell>
        <mxCell id="zXZ9EwWsIQRavocEQ5ef-124" value="" style="endArrow=block;endSize=16;endFill=0;html=1;rounded=0;entryX=0.5;entryY=1;entryDx=0;entryDy=0;" edge="1" parent="1" target="zXZ9EwWsIQRavocEQ5ef-123">
          <mxGeometry width="160" relative="1" as="geometry">
            <mxPoint x="160" y="340" as="sourcePoint" />
            <mxPoint x="490" y="150" as="targetPoint" />
            <Array as="points">
              <mxPoint x="160" y="340" />
            </Array>
          </mxGeometry>
        </mxCell>
        <mxCell id="zXZ9EwWsIQRavocEQ5ef-125" value="&lt;p style=&quot;margin:0px;margin-top:4px;text-align:center;&quot;&gt;&lt;b&gt;Enfant&amp;nbsp;&lt;/b&gt;&lt;/p&gt;&lt;hr size=&quot;1&quot;&gt;&lt;div style=&quot;height:2px;&quot;&gt;&lt;/div&gt;" style="verticalAlign=top;align=left;overflow=fill;fontSize=12;fontFamily=Helvetica;html=1;whiteSpace=wrap;" vertex="1" parent="1">
          <mxGeometry x="90" y="335" width="140" height="60" as="geometry" />
        </mxCell>
        <mxCell id="zXZ9EwWsIQRavocEQ5ef-129" value="" style="endArrow=none;html=1;rounded=0;exitX=1;exitY=0.367;exitDx=0;exitDy=0;exitPerimeter=0;" edge="1" parent="1" source="zXZ9EwWsIQRavocEQ5ef-96">
          <mxGeometry width="50" height="50" relative="1" as="geometry">
            <mxPoint x="393" y="180" as="sourcePoint" />
            <mxPoint x="520" y="230" as="targetPoint" />
          </mxGeometry>
        </mxCell>
      </root>
    </mxGraphModel>
  </diagram>
</mxfile>
